<svg data-v-fde0c5aa="" xmlns="http://www.w3.org/2000/svg" viewBox="0 0 300 300" class="font"><!----><defs data-v-fde0c5aa=""><!----></defs><rect data-v-fde0c5aa="" fill="transparent" x="0" y="0" width="300px" height="300px" class="logo-background-square"></rect><defs data-v-fde0c5aa=""><!----></defs><g data-v-fde0c5aa="" id="77bac5d5-7186-4c24-880f-1317864aa8d6" fill="#F9F7F7" transform="matrix(1.5044792889819394,0,0,1.5044792889819394,39.578745797291575,137.69335967438872)"><path d="M0.28 3.35L8.32 3.35L8.32 5.21L5.39 5.21L5.39 13.05L3.21 13.05L3.21 5.21L0.28 5.21L0.28 3.35ZM12.56 3.23L12.56 3.23L12.56 3.23Q14.74 3.23 15.90 4.01L15.90 4.01L15.90 4.01Q17.07 4.79 17.07 6.43L17.07 6.43L17.07 6.43Q17.07 7.45 16.60 8.09L16.60 8.09L16.60 8.09Q16.13 8.72 15.25 9.09L15.25 9.09L15.25 9.09Q15.54 9.45 15.86 9.92L15.86 9.92L15.86 9.92Q16.18 10.39 16.50 10.90L16.50 10.90L16.50 10.90Q16.81 11.41 17.11 11.96L17.11 11.96L17.11 11.96Q17.40 12.52 17.65 13.05L17.65 13.05L15.20 13.05L15.20 13.05Q14.94 12.57 14.66 12.08L14.66 12.08L14.66 12.08Q14.39 11.59 14.11 11.13L14.11 11.13L14.11 11.13Q13.82 10.67 13.54 10.25L13.54 10.25L13.54 10.25Q13.26 9.84 12.98 9.51L12.98 9.51L11.90 9.51L11.90 13.05L9.72 13.05L9.72 3.49L9.72 3.49Q10.43 3.35 11.19 3.29L11.19 3.29L11.19 3.29Q11.96 3.23 12.56 3.23ZM12.68 5.10L12.68 5.10L12.68 5.10Q12.45 5.10 12.26 5.11L12.26 5.11L12.26 5.11Q12.07 5.12 11.90 5.14L11.90 5.14L11.90 7.77L12.52 7.77L12.52 7.77Q13.75 7.77 14.28 7.46L14.28 7.46L14.28 7.46Q14.81 7.15 14.81 6.41L14.81 6.41L14.81 6.41Q14.81 5.70 14.27 5.40L14.27 5.40L14.27 5.40Q13.73 5.10 12.68 5.10ZM19.05 13.05L19.05 3.35L21.24 3.35L21.24 13.05L19.05 13.05ZM31.82 13.05L29.99 13.05L29.99 13.05Q29.05 11.38 27.96 9.76L27.96 9.76L27.96 9.76Q26.87 8.13 25.63 6.69L25.63 6.69L25.63 13.05L23.48 13.05L23.48 3.35L25.26 3.35L25.26 3.35Q25.72 3.81 26.28 4.48L26.28 4.48L26.28 4.48Q26.84 5.15 27.42 5.92L27.42 5.92L27.42 5.92Q28 6.68 28.57 7.50L28.57 7.50L28.57 7.50Q29.15 8.32 29.65 9.07L29.65 9.07L29.65 3.35L31.82 3.35L31.82 13.05ZM34.06 13.05L34.06 3.35L36.25 3.35L36.25 13.05L34.06 13.05ZM37.65 3.35L45.68 3.35L45.68 5.21L42.76 5.21L42.76 13.05L40.57 13.05L40.57 5.21L37.65 5.21L37.65 3.35ZM50.64 7.34L50.64 7.34L50.64 7.34Q51.23 6.34 51.76 5.35L51.76 5.35L51.76 5.35Q52.29 4.35 52.74 3.35L52.74 3.35L55.15 3.35L55.15 3.35Q54.35 4.91 53.49 6.38L53.49 6.38L53.49 6.38Q52.64 7.85 51.69 9.34L51.69 9.34L51.69 13.05L49.50 13.05L49.50 9.37L49.50 9.37Q48.55 7.88 47.69 6.40L47.69 6.40L47.69 6.40Q46.83 4.91 46.03 3.35L46.03 3.35L48.57 3.35L48.57 3.35Q49.01 4.35 49.53 5.35L49.53 5.35L49.53 5.35Q50.05 6.34 50.64 7.34ZM64.12 13.24L64.12 13.24L64.12 13.24Q61.75 13.24 60.52 11.93L60.52 11.93L60.52 11.93Q59.28 10.61 59.28 8.19L59.28 8.19L59.28 8.19Q59.28 6.99 59.65 6.04L59.65 6.04L59.65 6.04Q60.03 5.10 60.69 4.45L60.69 4.45L60.69 4.45Q61.35 3.79 62.26 3.46L62.26 3.46L62.26 3.46Q63.17 3.12 64.23 3.12L64.23 3.12L64.23 3.12Q64.85 3.12 65.35 3.21L65.35 3.21L65.35 3.21Q65.86 3.30 66.23 3.42L66.23 3.42L66.23 3.42Q66.61 3.54 66.86 3.67L66.86 3.67L66.86 3.67Q67.12 3.79 67.23 3.86L67.23 3.86L66.60 5.63L66.60 5.63Q66.15 5.39 65.56 5.22L65.56 5.22L65.56 5.22Q64.96 5.05 64.20 5.05L64.20 5.05L64.20 5.05Q63.70 5.05 63.22 5.22L63.22 5.22L63.22 5.22Q62.73 5.39 62.36 5.76L62.36 5.76L62.36 5.76Q61.99 6.13 61.77 6.72L61.77 6.72L61.77 6.72Q61.54 7.31 61.54 8.15L61.54 8.15L61.54 8.15Q61.54 8.82 61.69 9.40L61.69 9.40L61.69 9.40Q61.84 9.98 62.17 10.40L62.17 10.40L62.17 10.40Q62.50 10.82 63.03 11.07L63.03 11.07L63.03 11.07Q63.56 11.31 64.32 11.31L64.32 11.31L64.32 11.31Q64.79 11.31 65.17 11.26L65.17 11.26L65.17 11.26Q65.55 11.20 65.84 11.12L65.84 11.12L65.84 11.12Q66.14 11.05 66.36 10.95L66.36 10.95L66.36 10.95Q66.58 10.85 66.77 10.77L66.77 10.77L67.37 12.52L67.37 12.52Q66.91 12.80 66.07 13.02L66.07 13.02L66.07 13.02Q65.23 13.24 64.12 13.24ZM70.60 8.19L70.60 8.19L70.60 8.19Q70.60 8.90 70.78 9.48L70.78 9.48L70.78 9.48Q70.95 10.05 71.28 10.46L71.28 10.46L71.28 10.46Q71.61 10.88 72.09 11.10L72.09 11.10L72.09 11.10Q72.56 11.33 73.18 11.33L73.18 11.33L73.18 11.33Q73.78 11.33 74.26 11.10L74.26 11.10L74.26 11.10Q74.75 10.88 75.08 10.46L75.08 10.46L75.08 10.46Q75.40 10.05 75.58 9.48L75.58 9.48L75.58 9.48Q75.75 8.90 75.75 8.19L75.75 8.19L75.75 8.19Q75.75 7.48 75.58 6.89L75.58 6.89L75.58 6.89Q75.40 6.31 75.08 5.90L75.08 5.90L75.08 5.90Q74.75 5.49 74.26 5.26L74.26 5.26L74.26 5.26Q73.78 5.04 73.18 5.04L73.18 5.04L73.18 5.04Q72.56 5.04 72.09 5.27L72.09 5.27L72.09 5.27Q71.61 5.50 71.28 5.92L71.28 5.92L71.28 5.92Q70.95 6.33 70.78 6.91L70.78 6.91L70.78 6.91Q70.60 7.49 70.60 8.19ZM78.01 8.19L78.01 8.19L78.01 8.19Q78.01 9.44 77.64 10.38L77.64 10.38L77.64 10.38Q77.27 11.33 76.62 11.96L76.62 11.96L76.62 11.96Q75.98 12.60 75.09 12.92L75.09 12.92L75.09 12.92Q74.20 13.24 73.18 13.24L73.18 13.24L73.18 13.24Q72.18 13.24 71.30 12.92L71.30 12.92L71.30 12.92Q70.42 12.60 69.76 11.96L69.76 11.96L69.76 11.96Q69.10 11.33 68.73 10.38L68.73 10.38L68.73 10.38Q68.35 9.44 68.35 8.19L68.35 8.19L68.35 8.19Q68.35 6.94 68.74 6.00L68.74 6.00L68.74 6.00Q69.13 5.05 69.80 4.41L69.80 4.41L69.80 4.41Q70.46 3.77 71.34 3.44L71.34 3.44L71.34 3.44Q72.21 3.12 73.18 3.12L73.18 3.12L73.18 3.12Q74.17 3.12 75.05 3.44L75.05 3.44L75.05 3.44Q75.94 3.77 76.59 4.41L76.59 4.41L76.59 4.41Q77.25 5.05 77.63 6.00L77.63 6.00L77.63 6.00Q78.01 6.94 78.01 8.19ZM80.32 3.35L82.40 3.35L82.40 3.35Q82.66 3.81 82.98 4.49L82.98 4.49L82.98 4.49Q83.31 5.17 83.67 5.96L83.67 5.96L83.67 5.96Q84.03 6.75 84.38 7.57L84.38 7.57L84.38 7.57Q84.73 8.40 85.04 9.13L85.04 9.13L85.04 9.13Q85.34 8.40 85.69 7.57L85.69 7.57L85.69 7.57Q86.04 6.75 86.40 5.96L86.40 5.96L86.40 5.96Q86.76 5.17 87.09 4.49L87.09 4.49L87.09 4.49Q87.42 3.81 87.67 3.35L87.67 3.35L89.66 3.35L89.66 3.35Q89.80 4.31 89.91 5.51L89.91 5.51L89.91 5.51Q90.03 6.71 90.13 8.00L90.13 8.00L90.13 8.00Q90.22 9.30 90.29 10.60L90.29 10.60L90.29 10.60Q90.37 11.90 90.43 13.05L90.43 13.05L88.30 13.05L88.30 13.05Q88.26 11.63 88.19 9.97L88.19 9.97L88.19 9.97Q88.12 8.30 87.98 6.61L87.98 6.61L87.98 6.61Q87.72 7.20 87.42 7.91L87.42 7.91L87.42 7.91Q87.11 8.62 86.81 9.34L86.81 9.34L86.81 9.34Q86.51 10.05 86.23 10.70L86.23 10.70L86.23 10.70Q85.95 11.35 85.75 11.82L85.75 11.82L84.22 11.82L84.22 11.82Q84.03 11.35 83.75 10.70L83.75 10.70L83.75 10.70Q83.47 10.05 83.17 9.34L83.17 9.34L83.17 9.34Q82.87 8.62 82.56 7.91L82.56 7.91L82.56 7.91Q82.25 7.20 82.00 6.61L82.00 6.61L82.00 6.61Q81.86 8.30 81.79 9.97L81.79 9.97L81.79 9.97Q81.72 11.63 81.68 13.05L81.68 13.05L79.55 13.05L79.55 13.05Q79.60 11.90 79.68 10.60L79.68 10.60L79.68 10.60Q79.76 9.30 79.85 8.00L79.85 8.00L79.85 8.00Q79.94 6.71 80.06 5.51L80.06 5.51L80.06 5.51Q80.18 4.31 80.32 3.35L80.32 3.35ZM92.88 3.35L94.96 3.35L94.96 3.35Q95.21 3.81 95.54 4.49L95.54 4.49L95.54 4.49Q95.87 5.17 96.23 5.96L96.23 5.96L96.23 5.96Q96.59 6.75 96.94 7.57L96.94 7.57L96.94 7.57Q97.29 8.40 97.59 9.13L97.59 9.13L97.59 9.13Q97.90 8.40 98.25 7.57L98.25 7.57L98.25 7.57Q98.60 6.75 98.96 5.96L98.96 5.96L98.96 5.96Q99.32 5.17 99.64 4.49L99.64 4.49L99.64 4.49Q99.97 3.81 100.23 3.35L100.23 3.35L102.21 3.35L102.21 3.35Q102.35 4.31 102.47 5.51L102.47 5.51L102.47 5.51Q102.59 6.71 102.68 8.00L102.68 8.00L102.68 8.00Q102.77 9.30 102.85 10.60L102.85 10.60L102.85 10.60Q102.93 11.90 102.98 13.05L102.98 13.05L100.86 13.05L100.86 13.05Q100.81 11.63 100.74 9.97L100.74 9.97L100.74 9.97Q100.67 8.30 100.53 6.61L100.53 6.61L100.53 6.61Q100.28 7.20 99.97 7.91L99.97 7.91L99.97 7.91Q99.67 8.62 99.36 9.34L99.36 9.34L99.36 9.34Q99.06 10.05 98.78 10.70L98.78 10.70L98.78 10.70Q98.50 11.35 98.31 11.82L98.31 11.82L96.78 11.82L96.78 11.82Q96.59 11.35 96.31 10.70L96.31 10.70L96.31 10.70Q96.03 10.05 95.72 9.34L95.72 9.34L95.72 9.34Q95.42 8.62 95.12 7.91L95.12 7.91L95.12 7.91Q94.81 7.20 94.56 6.61L94.56 6.61L94.56 6.61Q94.42 8.30 94.35 9.97L94.35 9.97L94.35 9.97Q94.28 11.63 94.23 13.05L94.23 13.05L92.11 13.05L92.11 13.05Q92.16 11.90 92.24 10.60L92.24 10.60L92.24 10.60Q92.32 9.30 92.41 8.00L92.41 8.00L92.41 8.00Q92.50 6.71 92.62 5.51L92.62 5.51L92.62 5.51Q92.74 4.31 92.88 3.35L92.88 3.35ZM108.74 13.24L108.74 13.24L108.74 13.24Q107.72 13.24 106.97 12.96L106.97 12.96L106.97 12.96Q106.23 12.67 105.75 12.16L105.75 12.16L105.75 12.16Q105.27 11.65 105.03 10.94L105.03 10.94L105.03 10.94Q104.80 10.23 104.80 9.38L104.80 9.38L104.80 3.35L106.99 3.35L106.99 9.20L106.99 9.20Q106.99 9.79 107.12 10.20L107.12 10.20L107.12 10.20Q107.25 10.61 107.48 10.87L107.48 10.87L107.48 10.87Q107.72 11.13 108.04 11.24L108.04 11.24L108.04 11.24Q108.37 11.35 108.77 11.35L108.77 11.35L108.77 11.35Q109.56 11.35 110.06 10.86L110.06 10.86L110.06 10.86Q110.56 10.37 110.56 9.20L110.56 9.20L110.56 3.35L112.74 3.35L112.74 9.38L112.74 9.38Q112.74 10.23 112.50 10.95L112.50 10.95L112.50 10.95Q112.27 11.66 111.78 12.17L111.78 12.17L111.78 12.17Q111.29 12.68 110.53 12.96L110.53 12.96L110.53 12.96Q109.77 13.24 108.74 13.24ZM123.19 13.05L121.35 13.05L121.35 13.05Q120.41 11.38 119.32 9.76L119.32 9.76L119.32 9.76Q118.23 8.13 117.00 6.69L117.00 6.69L117.00 13.05L114.84 13.05L114.84 3.35L116.62 3.35L116.62 3.35Q117.08 3.81 117.64 4.48L117.64 4.48L117.64 4.48Q118.20 5.15 118.78 5.92L118.78 5.92L118.78 5.92Q119.36 6.68 119.94 7.50L119.94 7.50L119.94 7.50Q120.51 8.32 121.02 9.07L121.02 9.07L121.02 3.35L123.19 3.35L123.19 13.05ZM125.43 13.05L125.43 3.35L127.61 3.35L127.61 13.05L125.43 13.05ZM129.01 3.35L137.05 3.35L137.05 5.21L134.12 5.21L134.12 13.05L131.94 13.05L131.94 5.21L129.01 5.21L129.01 3.35ZM142.00 7.34L142.00 7.34L142.00 7.34Q142.59 6.34 143.12 5.35L143.12 5.35L143.12 5.35Q143.65 4.35 144.10 3.35L144.10 3.35L146.51 3.35L146.51 3.35Q145.71 4.91 144.86 6.38L144.86 6.38L144.86 6.38Q144.00 7.85 143.05 9.34L143.05 9.34L143.05 13.05L140.87 13.05L140.87 9.37L140.87 9.37Q139.92 7.88 139.06 6.40L139.06 6.40L139.06 6.40Q138.19 4.91 137.40 3.35L137.40 3.35L139.93 3.35L139.93 3.35Q140.38 4.35 140.90 5.35L140.90 5.35L140.90 5.35Q141.41 6.34 142.00 7.34Z"></path></g><!----><!----></svg>