<svg data-v-423bf9ae="" xmlns="http://www.w3.org/2000/svg" viewBox="0 0 NaN 90" class="iconLeft"><!----><!----><!----><g data-v-423bf9ae="" id="2a2964f5-ab55-4f74-912a-81d876b2a43f" fill="black" transform="matrix(Infinity,0,0,Infinity,0,45)"><path d=""></path></g><!----><g data-v-423bf9ae="" id="deb75f1b-0435-4c09-9ed0-989ad4be6c37" transform="matrix(1.1234271017760111,0,0,1.1234271017760111,-5.171529263806072,-10.227481312402901)" stroke="none" fill="black"><path d="M72.764 41.594a2.607 2.607 0 1 1 0 5.214 2.607 2.607 0 0 1 0-5.214zM5.083 77.045c.391-1.535 1.949-2.246 2.52-2.458.522-.218 2.642-.979 9.648-2.459 2.213-.468 8.452-1.189 13.107-1.692-4.171-2.725-8.735-5.992-10.932-8.521-4.831-5.563-9.638-11.944-10.72-23.303-1.116-11.719 4.46-18.425 4.698-18.705l1.311-1.542 1.462 1.399c.138.133 11.519 12.517 19.694 16.642.238.12.468.234.701.35 1.537-6.519 7.717-13.517 8.484-14.367l2.115-2.343 1.52 2.767c.047.085 4.708 8.578 7.91 14.982.241.482.478.975.719 1.478.986 2.054 2.006 4.167 3.611 6.066 3.208-7.163 6.174-10.608 10.568-11.236a8.339 8.339 0 0 1 1.173-.082c3.455 0 6.865 2.066 8.042 2.856l.528.072c-.366-.999-1.518-3.979-3.72-7.519a52.442 52.442 0 0 1-9.682 1.696c-6.732.522-10.452-2.876-10.452-2.876s6.732-3.483 12.255-2.786c2.845.359 4.998 1.225 6.422 1.981-2.254-3.409-3.493-4.426-5.168-6.315-1.799.281-4.662.428-8.836-.159-8.127-1.142-8.443-4.322-8.443-4.322s6.714-2.578 12.244-1.466c2.488.501 4.249 1.622 5.438 2.705 0 0 3.187 2.681 6.319 6.705.436-2.328 1.167-5.392 2.279-7.635 2.043-4.121 6.049-7.013 6.049-7.013s.511 6.697-1.021 10.303c-.973 2.291-3.869 4.789-5.852 6.307 1.429 2.031 2.83 4.349 3.973 6.884l.22.497c.376-2.021 1.263-5.158 3.318-7.428C89.857 22.891 95 21.476 95 21.476s-1.253 6.419-4.837 9.721a27.617 27.617 0 0 1-6.231 4.312c.249.607.503 1.247.761 1.909l7.432 1.014-4.031 2.797c-.022.015-.643.452-1.527 1.232 1.888 5.276 3.511 10.318 3.597 10.614l-4.234-.906c-.017-.059-.844-3.169-1.997-7.009-1.851 2.216-3.639 5.219-3.732 8.628-.277 10.14-1.82 16.54-5.327 22.089-4.083 6.461-13.878 10.591-19.528 11.46a18.03 18.03 0 0 1-2.727.196c-4.419 0-9.188-1.386-11.75-2.13-.651-.189-1.389-.404-1.561-.431-.693 0-3.247.898-6.052 2.523-2.146 1.242-5.733 2.562-8.156 2.562-.45 0-.844-.044-1.205-.134-1.67-.418-2.259-1.37-2.61-1.939-.146-.236-.197-.315-.308-.397-.068-.019-.265-.059-.705-.059-.339 0-.712.023-1.073.046-.364.023-.708.044-1.034.044-.436 0-1.595 0-2.301-.943-.232-.308-.47-.706-.746-1.166-.16-.267-.345-.575-.514-.834l-.198.004c-.133.003-.266.006-.395.006-.483 0-1.765 0-2.583-1.023-.336-.42-.544-.85-.728-1.229-.205-.423-.337-.684-.56-.893-.146-.052-.499-.11-.739-.149-.972-.158-2.44-.397-3.565-1.646-.977-1.086-.891-2.158-.753-2.7zm48.189-35.829c-.231-.48-.457-.953-.687-1.413-2.008-4.016-4.604-8.877-6.244-11.912-2.276 2.978-5.158 7.441-5.567 10.866 6.116 2.773 10.011 3.876 13.847 5.158a67.151 67.151 0 0 1-1.349-2.699zM13.214 78.265c.706.663 1.111 1.372 1.384 1.917 0 0 1.379-.741 2.423-.034.57.386 1.35 2.083 1.35 2.083.187.289.378.603.532.86l.01-.001c.388-.025.871-.055 1.357-.055.749 0 1.352.07 1.898.221l.806.222.672.497c.773.572 1.178 1.195 1.422 1.59h.03c1.321 0 4.136-.933 5.905-1.957.553-.32 5.482-3.127 8.303-3.127h.356l.352.056c.414.066.854.189 2.11.554 2.347.682 6.715 1.951 10.493 1.951.736 0 1.424-.048 2.045-.144 4.858-.747 13.264-4.437 16.414-9.421 3.039-4.808 4.381-10.547 4.634-19.811.139-5.096 2.915-9.338 5.483-12.191l-1.085-.148-1.031-.141-.864-.58c-1.44-.966-3.754-2.094-5.539-2.094-.188 0-.369.012-.538.036-1.87.267-4.068 1.594-7.459 9.421l-1.802 4.16-4.143-1.841c-2.678-1.19-4.918-1.918-7.512-2.761-4.319-1.404-9.214-2.995-17.37-7.111-6.368-3.214-14.036-10.474-18.558-15.088-1.24 2.519-2.683 6.875-2.113 12.858.957 10.044 5.106 15.562 9.64 20.784.881 1.014 3.351 3.364 9.997 7.706l10.521 6.874-12.495 1.35c-6.498.703-11.112 1.294-12.661 1.621a157.87 157.87 0 0 0-5.494 1.249l.527.495z"></path></g><!----></svg>